<svg xmlns="http://www.w3.org/2000/svg" viewBox="0 0 1200 630" width="1200" height="630" role="img" aria-label="Consultant Launch System — Personal Brand &amp; LinkedIn Thought Leadership">
  <defs>
    <linearGradient id="bg" x1="0" y1="0" x2="1" y2="1">
      <stop offset="0%" stop-color="#1e40af"/>
      <stop offset="100%" stop-color="#0ea5e9"/>
    </linearGradient>
    <pattern id="grid" width="60" height="60" patternUnits="userSpaceOnUse">
      <path d="M 60 0 L 0 0 0 60" fill="none" stroke="#ffffff" stroke-opacity="0.05" stroke-width="1"/>
    </pattern>
  </defs>
  <rect width="1200" height="630" fill="url(#bg)"/>
  <rect width="1200" height="630" fill="url(#grid)"/>
  <g transform="translate(840,200)" fill="#ffffff" fill-opacity="0.22" stroke="#ffffff" stroke-opacity="0.2"><rect x="60"  y="40"  width="180" height="220" rx="8"/><rect x="40"  y="60"  width="180" height="220" rx="8" fill-opacity="0.35"/><rect x="20"  y="80"  width="180" height="220" rx="8" fill-opacity="0.5"/><line x1="40" y1="120" x2="180" y2="120" stroke-opacity="0.5"/><line x1="40" y1="150" x2="180" y2="150" stroke-opacity="0.5"/><line x1="40" y1="180" x2="160" y2="180" stroke-opacity="0.5"/><line x1="40" y1="210" x2="180" y2="210" stroke-opacity="0.5"/><line x1="40" y1="240" x2="140" y2="240" stroke-opacity="0.5"/></g>
  <text x="80" y="100" font-family="monospace" font-size="15" fill="#ffffff" fill-opacity="0.72" letter-spacing="2">IN-PROGRESS</text>
  <text x="80" y="220" font-family="-apple-system, BlinkMacSystemFont, Segoe UI, sans-serif" font-size="68" font-weight="800" fill="#ffffff">Consultant Launch</text>
  <text x="80" y="302" font-family="-apple-system, BlinkMacSystemFont, Segoe UI, sans-serif" font-size="68" font-weight="800" fill="#ffffff">System — Personal</text>
  <text x="80" y="416" font-family="-apple-system, sans-serif" font-size="26" fill="#ffffff" fill-opacity="0.88">A complete launch system for a consultant's personal</text>
  <text x="80" y="454" font-family="-apple-system, sans-serif" font-size="26" fill="#ffffff" fill-opacity="0.88">brand: market research, positioning, a style-guide-</text>
  <text x="80" y="492" font-family="-apple-system, sans-serif" font-size="26" fill="#ffffff" fill-opacity="0.88">as-code, 12 pre-written LinkedIn posts, an AI</text>
  <text x="80" y="530" font-family="-apple-system, sans-serif" font-size="26" fill="#ffffff" fill-opacity="0.88">drafting tool that writes in my voice, and a live</text>
  <g transform="translate(80, 540)"><rect width="228" height="38" rx="19" fill="#ffffff" fill-opacity="0.18"/><text x="114.0" y="25" font-family="monospace" font-size="15" fill="#ffffff" text-anchor="middle">personal-brand</text></g>
  <g transform="translate(320, 540)"><rect width="144" height="38" rx="19" fill="#ffffff" fill-opacity="0.18"/><text x="72.0" y="25" font-family="monospace" font-size="15" fill="#ffffff" text-anchor="middle">linkedin</text></g>
  <g transform="translate(476, 540)"><rect width="284" height="38" rx="19" fill="#ffffff" fill-opacity="0.18"/><text x="142.0" y="25" font-family="monospace" font-size="15" fill="#ffffff" text-anchor="middle">thought-leadership</text></g>
  <g transform="translate(772, 540)"><rect width="130" height="38" rx="19" fill="#ffffff" fill-opacity="0.18"/><text x="65.0" y="25" font-family="monospace" font-size="15" fill="#ffffff" text-anchor="middle">content</text></g>
  <g transform="translate(914, 540)"><rect width="130" height="38" rx="19" fill="#ffffff" fill-opacity="0.18"/><text x="65.0" y="25" font-family="monospace" font-size="15" fill="#ffffff" text-anchor="middle">writing</text></g>
  <text x="1120" y="600" font-family="monospace" font-size="14" fill="#ffffff" fill-opacity="0.55" text-anchor="end">built with Claude Code</text>
</svg>
